PathFileType	4	(X/Y/Z)	 1.8Hz3min.trc
DataRate	CameraRate	NumFrames	NumMarkers	Units	OrigDataRate	OrigDataStartFrame	OrigNumFrames
200	200	8	39	m	200	501	1000
Frame#	Time	C7			LSH			RSH			MAN			RASI			LASI			HIPR			HIPL			RPSI			LPSI			COX			RTHI1			RTHI2			RTHI3			RTHI4			RLKN			RMKN			RSHA1			RSHA2			RSHA3			RSHA4			RHEEL			RMET5			RMET1			RTOE			LTHI1			LTHI2			LTHI3			LTHI4			LLKN			LMKN			LSHA1			LSHA2			LSHA3			LSHA4			LHEEL			LMET5			LMET1			LTOE			
		X1	Y1	Z1	X2	Y2	Z2	X3	Y3	Z3	X4	Y4	Z4	X5	Y5	Z5	X6	Y6	Z6	X7	Y7	Z7	X8	Y8	Z8	X9	Y9	Z9	X10	Y10	Z10	X11	Y11	Z11	X12	Y12	Z12	X13	Y13	Z13	X14	Y14	Z14	X15	Y15	Z15	X16	Y16	Z16	X17	Y17	Z17	X18	Y18	Z18	X19	Y19	Z19	X20	Y20	Z20	X21	Y21	Z21	X22	Y22	Z22	X23	Y23	Z23	X24	Y24	Z24	X25	Y25	Z25	X26	Y26	Z26	X27	Y27	Z27	X28	Y28	Z28	X29	Y29	Z29	X30	Y30	Z30	X31	Y31	Z31	X32	Y32	Z32	X33	Y33	Z33	X34	Y34	Z34	X35	Y35	Z35	X36	Y36	Z36	X37	Y37	Z37	X38	Y38	Z38	X39	Y39	Z39	
501	2.5050	-0.193908	1.385570	-0.544126	-0.131206	1.352774	-0.728075	-0.164479	1.367161	-0.348554	-0.050017	1.307635	-0.537568	-0.141671	0.861962	-0.413884	-0.132647	0.864983	-0.652782	-0.218349	0.934173	-0.366594	-0.197507	0.924569	-0.706360	-0.301507	0.942808	-0.495058	-0.298528	0.946327	-0.582385	-0.297696	0.949653	-0.535828	-0.197331	0.686392	-0.338306	-0.170703	0.633582	-0.330695	-0.111802	0.661164	-0.329435	-0.132348	0.718689	-0.338953	-0.077516	0.390436	-0.356532	-0.061146	0.385441	-0.475483	-0.184910	0.303296	-0.340484	-0.209586	0.271294	-0.355632	-0.156635	0.241944	-0.360378	-0.136086	0.274792	-0.349420	-0.360198	0.073164	-0.455085	-0.214060	0.034676	-0.365052	-0.150016	0.046252	-0.433458	-0.119828	0.034683	-0.425325	-0.190049	0.690609	-0.741363	-0.155913	0.639833	-0.750657	-0.099272	0.670829	-0.749910	-0.124800	0.725071	-0.740726	-0.074099	0.402375	-0.722910	-0.040883	0.403390	-0.603665	-0.178071	0.298188	-0.725851	-0.199785	0.266274	-0.713010	-0.143848	0.236301	-0.714282	-0.128796	0.275392	-0.728253	-0.337267	0.064112	-0.614426	-0.183587	0.035577	-0.711161	-0.121960	0.047495	-0.642061	-0.096513	0.036623	-0.653826	
502	2.5100	-0.194639	1.388367	-0.543949	-0.132348	1.356078	-0.727950	-0.165098	1.370411	-0.348619	-0.050467	1.311065	-0.537636	-0.140340	0.864662	-0.414389	-0.131689	0.868057	-0.652964	-0.216178	0.937418	-0.366582	-0.197225	0.927698	-0.706235	-0.300439	0.945523	-0.494613	-0.297755	0.948841	-0.581945	-0.296758	0.952277	-0.535457	-0.197011	0.688944	-0.338174	-0.170787	0.635933	-0.330613	-0.111676	0.663043	-0.329457	-0.131780	0.720756	-0.338953	-0.079568	0.392029	-0.356487	-0.062646	0.386666	-0.475348	-0.186459	0.304121	-0.340580	-0.210905	0.271956	-0.355771	-0.157761	0.242917	-0.360339	-0.137442	0.275903	-0.349328	-0.360195	0.073247	-0.454966	-0.214034	0.034675	-0.365031	-0.150016	0.046249	-0.433440	-0.119830	0.034675	-0.425355	-0.189943	0.693794	-0.741312	-0.156012	0.642921	-0.750773	-0.099236	0.673663	-0.749702	-0.124541	0.727983	-0.740348	-0.076005	0.403608	-0.723057	-0.042192	0.404325	-0.604002	-0.179427	0.298806	-0.725917	-0.200956	0.266767	-0.713052	-0.144823	0.237038	-0.714384	-0.130034	0.276187	-0.728386	-0.337273	0.064213	-0.614650	-0.183560	0.035545	-0.711252	-0.121984	0.047535	-0.642145	-0.096530	0.036627	-0.653854	
503	2.5150	-0.195385	1.391587	-0.543761	-0.133542	1.359878	-0.727833	-0.165702	1.374111	-0.348680	-0.050959	1.314965	-0.537752	-0.138914	0.867798	-0.414905	-0.130703	0.871557	-0.653213	-0.213962	0.941096	-0.366647	-0.196972	0.931184	-0.706220	-0.299282	0.948664	-0.494198	-0.296897	0.951773	-0.581536	-0.295739	0.955324	-0.535118	-0.196734	0.691919	-0.338035	-0.170955	0.638708	-0.330501	-0.111617	0.665287	-0.329445	-0.131245	0.723180	-0.338924	-0.081849	0.393875	-0.356446	-0.064474	0.388276	-0.475207	-0.188099	0.305121	-0.340565	-0.212311	0.272800	-0.355769	-0.158969	0.244090	-0.360263	-0.138886	0.277218	-0.349224	-0.360201	0.073376	-0.454794	-0.214002	0.034659	-0.364995	-0.150019	0.046253	-0.433425	-0.119840	0.034665	-0.425399	-0.190030	0.697067	-0.741170	-0.156408	0.646025	-0.750785	-0.099452	0.676420	-0.749619	-0.124425	0.730865	-0.740133	-0.078313	0.405016	-0.723236	-0.043853	0.405429	-0.604408	-0.180987	0.299608	-0.725954	-0.202310	0.267418	-0.713078	-0.145966	0.237972	-0.714514	-0.131443	0.277211	-0.728500	-0.337252	0.064374	-0.614844	-0.183530	0.035510	-0.711330	-0.122000	0.047580	-0.642237	-0.096537	0.036630	-0.653880	
504	2.5200	-0.196188	1.395241	-0.543603	-0.134797	1.364162	-0.727739	-0.166270	1.378246	-0.348751	-0.051495	1.319316	-0.537914	-0.137394	0.871378	-0.415404	-0.129696	0.875431	-0.653524	-0.211753	0.945150	-0.366793	-0.196727	0.934947	-0.706266	-0.298049	0.952211	-0.493823	-0.295949	0.955115	-0.581174	-0.294642	0.958768	-0.534821	-0.196504	0.695307	-0.337880	-0.171206	0.641871	-0.330365	-0.111632	0.667878	-0.329397	-0.130735	0.725943	-0.338857	-0.084341	0.395962	-0.356404	-0.066685	0.390291	-0.475081	-0.189835	0.306332	-0.340436	-0.213822	0.273849	-0.355636	-0.160275	0.245488	-0.360136	-0.140421	0.278756	-0.349087	-0.360213	0.073561	-0.454572	-0.213963	0.034622	-0.364945	-0.150019	0.046266	-0.433400	-0.119851	0.034652	-0.425441	-0.190310	0.700382	-0.740939	-0.157099	0.649106	-0.750689	-0.099920	0.679073	-0.749672	-0.124458	0.733684	-0.740084	-0.080953	0.406642	-0.723427	-0.045803	0.406784	-0.604848	-0.182764	0.300655	-0.725958	-0.203863	0.268307	-0.713075	-0.147300	0.239160	-0.714658	-0.133057	0.278553	-0.728617	-0.337205	0.064609	-0.615003	-0.183500	0.035473	-0.711393	-0.122007	0.047623	-0.642333	-0.096535	0.036633	-0.653907	
505	2.5250	-0.197034	1.399311	-0.543462	-0.136096	1.368902	-0.727664	-0.166806	1.382818	-0.348850	-0.052072	1.324089	-0.538115	-0.135796	0.875395	-0.415865	-0.128676	0.879628	-0.653878	-0.209586	0.949553	-0.367007	-0.196451	0.938943	-0.706321	-0.296754	0.956133	-0.493509	-0.294910	0.958858	-0.580862	-0.293475	0.962589	-0.534572	-0.196326	0.699067	-0.337718	-0.171555	0.645404	-0.330223	-0.111729	0.670804	-0.329311	-0.130257	0.729082	-0.338759	-0.087037	0.398285	-0.356352	-0.069299	0.392689	-0.474970	-0.191697	0.307777	-0.340253	-0.215462	0.275097	-0.355431	-0.161697	0.247121	-0.359968	-0.142077	0.280545	-0.348924	-0.360223	0.073820	-0.454323	-0.213918	0.034563	-0.364886	-0.150013	0.046288	-0.433364	-0.119861	0.034634	-0.425474	-0.190782	0.703714	-0.740620	-0.158073	0.652147	-0.750486	-0.100634	0.681609	-0.749856	-0.124639	0.736429	-0.740206	-0.083849	0.408541	-0.723607	-0.047968	0.408452	-0.605286	-0.184772	0.301983	-0.725924	-0.205630	0.269479	-0.713040	-0.148891	0.240699	-0.714848	-0.134917	0.280207	-0.728757	-0.337138	0.064933	-0.615138	-0.183471	0.035434	-0.711443	-0.122011	0.047663	-0.642430	-0.096530	0.036635	-0.653934	
506	2.5300	-0.197890	1.403734	-0.543319	-0.137427	1.374072	-0.727608	-0.167294	1.387747	-0.348934	-0.052696	1.329256	-0.538352	-0.134135	0.879839	-0.416271	-0.127639	0.884115	-0.654254	-0.207472	0.954293	-0.367253	-0.196113	0.943162	-0.706339	-0.295404	0.960399	-0.493260	-0.293772	0.962969	-0.580619	-0.292240	0.966760	-0.534376	-0.196209	0.703177	-0.337561	-0.172005	0.649264	-0.330075	-0.111908	0.674035	-0.329186	-0.129828	0.732534	-0.338627	-0.089920	0.400868	-0.356270	-0.072298	0.395434	-0.474874	-0.193737	0.309464	-0.340057	-0.217261	0.276605	-0.355192	-0.163274	0.249024	-0.359758	-0.143908	0.282594	-0.348737	-0.360234	0.074221	-0.454041	-0.213867	0.034483	-0.364819	-0.149998	0.046318	-0.433317	-0.119871	0.034617	-0.425509	-0.191428	0.707066	-0.740217	-0.159310	0.655152	-0.750177	-0.101586	0.684046	-0.750155	-0.124971	0.739109	-0.740485	-0.086972	0.410747	-0.723757	-0.050316	0.410467	-0.605693	-0.187022	0.303598	-0.725843	-0.207620	0.270931	-0.712970	-0.150760	0.242576	-0.715098	-0.137050	0.282154	-0.728927	-0.337061	0.065347	-0.615252	-0.183443	0.035392	-0.711483	-0.122013	0.047696	-0.642526	-0.096528	0.036637	-0.653962	
507	2.5350	-0.198780	1.408523	-0.543191	-0.138784	1.379638	-0.727568	-0.167758	1.393024	-0.349021	-0.053366	1.334783	-0.538623	-0.132429	0.884673	-0.416620	-0.126570	0.888856	-0.654634	-0.205415	0.959353	-0.367494	-0.195670	0.947624	-0.706290	-0.294010	0.964979	-0.493075	-0.292555	0.967427	-0.580443	-0.290943	0.971253	-0.534231	-0.196155	0.707615	-0.337424	-0.172551	0.653435	-0.329934	-0.112185	0.677549	-0.329031	-0.129457	0.736257	-0.338459	-0.093020	0.403740	-0.356167	-0.075634	0.398472	-0.474781	-0.195990	0.311416	-0.339895	-0.219251	0.278355	-0.354962	-0.165036	0.251209	-0.359498	-0.145943	0.284936	-0.348530	-0.360242	0.074806	-0.453735	-0.213803	0.034394	-0.364749	-0.149971	0.046355	-0.433261	-0.119879	0.034597	-0.425550	-0.192228	0.710465	-0.739742	-0.160783	0.658156	-0.749766	-0.102756	0.686413	-0.750540	-0.125449	0.741744	-0.740889	-0.090303	0.413284	-0.723855	-0.052835	0.412845	-0.606059	-0.189511	0.305472	-0.725709	-0.209834	0.272631	-0.712853	-0.152851	0.244702	-0.715367	-0.139437	0.284386	-0.729105	-0.336975	0.065863	-0.615366	-0.183416	0.035350	-0.711516	-0.122016	0.047726	-0.642623	-0.096533	0.036639	-0.653988	
508	2.5400	-0.199673	1.413617	-0.543056	-0.140105	1.385556	-0.727510	-0.168211	1.398621	-0.349115	-0.054013	1.340668	-0.538848	-0.130655	0.889915	-0.416894	-0.125463	0.893839	-0.655017	-0.203418	0.964716	-0.367698	-0.195081	0.952352	-0.706172	-0.292581	0.969841	-0.492946	-0.291262	0.972206	-0.580328	-0.289593	0.976036	-0.534135	-0.196160	0.712353	-0.337317	-0.173194	0.657893	-0.329821	-0.112559	0.681325	-0.328855	-0.129141	0.740234	-0.338264	-0.096361	0.406928	-0.356060	-0.079243	0.401750	-0.474683	-0.198485	0.313653	-0.339785	-0.221456	0.280357	-0.354793	-0.167007	0.253689	-0.359202	-0.148205	0.287582	-0.348287	-0.360225	0.075584	-0.453385	-0.213731	0.034290	-0.364686	-0.149940	0.046390	-0.433189	-0.119880	0.034584	-0.425589	-0.193161	0.713953	-0.739201	-0.162462	0.661220	-0.749258	-0.104120	0.688776	-0.750973	-0.126055	0.744398	-0.741384	-0.093844	0.416153	-0.723886	-0.055557	0.415568	-0.606357	-0.192228	0.307577	-0.725514	-0.212255	0.274557	-0.712689	-0.155165	0.247048	-0.715619	-0.142063	0.286871	-0.729273	-0.336881	0.066517	-0.615511	-0.183383	0.035307	-0.711545	-0.122022	0.047752	-0.642718	-0.096547	0.036641	-0.654014	
